HIERARCHY
ROOT ui
{
	 OFFSET 0 0 0
	 CHANNELS 3 XPosition YPosition Z Position
	 EndSite
	 {
	 OFFSET 0 -1 0
	 }
}
ROOT li
{
	 OFFSET 0 0 0
	 CHANNELS 3 XPosition YPosition Z Position
	 EndSite
	 {
	 OFFSET 0 -1 0
	 }
}
ROOT ul
{
	 OFFSET 0 0 0
	 CHANNELS 3 XPosition YPosition Z Position
	 EndSite
	 {
	 OFFSET 0 -1 0
	 }
}
ROOT ll
{
	 OFFSET 0 0 0
	 CHANNELS 3 XPosition YPosition Z Position
	 EndSite
	 {
	 OFFSET 0 -1 0
	 }
}
ROOT tt
{
	 OFFSET 0 0 0
	 CHANNELS 3 XPosition YPosition Z Position
	 EndSite
	 {
	 OFFSET 0 -1 0
	 }
}
ROOT tb
{
	 OFFSET 0 0 0
	 CHANNELS 3 XPosition YPosition Z Position
	 EndSite
	 {
	 OFFSET 0 -1 0
	 }
}
ROOT td
{
	 OFFSET 0 0 0
	 CHANNELS 3 XPosition YPosition Z Position
	 EndSite
	 {
	 OFFSET 0 -1 0
	 }
}
ROOT v
{
	 OFFSET 0 0 0
	 CHANNELS 3 XPosition YPosition Z Position
	 EndSite
	 {
	 OFFSET 0 -1 0
	 }
}
ROOT bn
{
	 OFFSET 0 0 0
	 CHANNELS 3 XPosition YPosition Z Position
	 EndSite
	 {
	 OFFSET 0 -1 0
	 }
}
MOTION
Frames: 10
Frame Time: 0.002
0.027509309768676757	0.003850477933883667	0		0.5565148315429688	-2.382132568359375	0		-1.078314453125	0.028055662155151366	0		-0.45266281127929686	-2.721834716796875	0		1.7997008056640624	-0.8505390625	0		3.3567568359375	-0.6348978271484375	0		4.5266220703125	-0.00466611909866333	0		5.88470361328125	0.25187106323242187	0		-0.4045528564453125	5.85108642578125	0		
0.02928801918029785	-0.0038909690380096434	0		0.4914361877441406	-2.373258056640625	0		-1.1663564453125	0.04014785385131836	0		-0.4548468017578125	-2.724537841796875	0		1.808781005859375	-0.8253524169921875	0		3.347635498046875	-0.6315492553710937	0		4.52041064453125	-0.011348657608032227	0		5.8845986328125	0.2523159942626953	0		-0.40468084716796876	5.8513642578125	0		
0.02422652053833008	0.00142986798286438	0		0.54125341796875	-2.380446044921875	0		-1.0785694580078125	0.02861467742919922	0		-0.46991720581054686	-2.719123046875	0		1.8169007568359374	-0.8001585693359375	0		3.353460693359375	-0.6383408813476562	0		4.52811767578125	-0.031162214279174805	0		5.8822958984375	0.23031552124023438	0		-0.4057593688964844	5.85264990234375	0		
-0.059899272918701174	-0.0035213730335235597	0		0.49814532470703127	-2.382778076171875	0		-1.150603271484375	0.03355596923828125	0		-0.46010260009765624	-2.729940673828125	0		1.8250546875	-0.7749672241210938	0		3.347292236328125	-0.6480239868164063	0		4.514998046875	-0.03578496551513672	0		5.8736845703125	0.23094354248046875	0		-0.4058130798339844	5.852923828125	0		
0.03209606170654297	8.983259797096252E-4	0		0.5400514526367187	-2.386897705078125	0		-1.137549072265625	0.044709228515625	0		-0.4441781005859375	-2.73181689453125	0		1.78932080078125	-0.7403723754882813	0		3.36402978515625	-0.6709217529296875	0		4.51873828125	-0.05856658172607422	0		5.87364990234375	0.23137538146972655	0		-0.38876666259765624	5.8610380859375	0		
-0.04987856674194336	0.006923081874847412	0		0.5231951904296875	-2.367476318359375	0		-1.1375732421875	0.04498017120361328	0		-0.42116665649414065	-2.72676123046875	0		1.8334676513671875	-0.7215191040039063	0		3.353308837890625	-0.6375661010742187	0		4.51466748046875	-0.06327800369262696	0		5.8792529296875	0.20918505859375	0		-0.403862548828125	5.8514453125	0		
0.024078153610229493	0.002502619028091431	0		0.5530158081054688	-2.3854912109375	0		-1.0744864501953124	0.05466474914550781	0		-0.4602056884765625	-2.729135498046875	0		1.7867691650390625	-0.687828857421875	0		3.337998779296875	-0.6701744384765626	0		4.50755322265625	-0.07496540069580078	0		5.87925	0.20960435485839843	0		-0.439880126953125	5.84804345703125	0		
-0.05196371459960938	-0.0035351970195770265	0		0.5151112060546875	-2.37588330078125	0		-1.074466552734375	0.05492767333984375	0		-0.42824411010742186	-2.734170654296875	0		1.828932373046875	-0.6719661865234375	0		3.346080322265625	-0.663002685546875	0		4.51944287109375	-0.08883426666259765	0		5.87001806640625	0.2171408233642578	0		-0.41988525390625	5.843119140625	0		
0.017080650329589844	-0.003921310901641845	0		0.5250652465820312	-2.384725341796875	0		-1.149415771484375	0.05587856292724609	0		-0.46217855834960936	-2.73060205078125	0		1.7971912841796875	-0.6484259643554687	0		3.352050537109375	-0.6708189697265625	0		4.51442529296875	-0.09555351257324218	0		5.867826171875	0.1950953826904297	0		-0.4198143920898437	5.843373046875	0		
0.03221807861328125	0.0021839289665222168	0		0.5131478881835938	-2.383371826171875	0		-1.136231689453125	0.06700682067871094	0		-0.41520166015625	-2.74079052734375	0		1.8385565185546875	-0.6175697631835938	0		3.355269287109375	-0.655616455078125	0		4.51045166015625	-0.10128996276855469	0		5.8757294921875	0.19530099487304686	0		-0.4056070251464844	5.8544892578125	0		
